<svg width="292" height="57" fill="none" xmlns="http://www.w3.org/2000/svg"><path d="M131.106 29.013c0 11.1-6.73 16.346-15.154 16.346h-5.148V38.7h4.747c5.081 0 8.468-2.757 8.468-9.686 0-6.862-3.203-10.293-8.619-10.293-5.214 0-8.942 3.23-8.942 10.159v27.85h-7.02V12.935h7.02v3.767h1.003c2.34-3.161 5.8-4.575 9.41-4.575 7.756 0 14.235 5.651 14.235 16.886zM84.97 26.12l-4.68-.471c-3.677-.336-5.616-1.345-5.616-3.498 0-2.556 2.474-4.036 6.017-4.036 3.677 0 6.017 1.749 6.218 4.238h6.752c-.267-6.324-5.148-10.226-12.903-10.226-7.822 0-13.104 4.171-13.104 10.293 0 5.113 3.209 8.409 10.497 9.149l4.746.47c2.875.27 4.814.875 4.814 3.633 0 2.49-1.805 4.306-6.552 4.306-4.371 0-6.525-1.996-7.28-4.671h-7.306c.728 6.115 5.834 10.86 14.586 10.86 8.223 0 13.572-4.373 13.572-10.83 0-5.719-3.744-8.612-9.761-9.217zm73.324 9.187c-1.101 2.545-3.732 4.47-7.466 4.47-5.148 0-8.959-3.364-8.959-10.63 0-6.929 3.543-10.763 9.025-10.763 4.881 0 7.689 2.96 7.957 7.4h-12.637v5.113h19.523v-3.364c0-9.351-6.151-15.406-14.909-15.406-8.157 0-15.979 5.584-15.979 17.02s7.822 17.02 15.979 17.02c7.46 0 12.78-4.624 14.433-10.86h-6.967zM47.63 12.127c-7.688 0-13.438 4.037-14.106 10.226h7.554c.535-2.287 2.608-3.969 6.552-3.969 5.082 0 6.753 2.692 6.753 5.987v11.1c-2.875 3.296-6.218 4.843-9.56 4.843-3.477 0-5.884-1.682-5.884-4.708 0-2.894 1.872-4.71 5.482-4.71h5.616v-5.113h-5.816c-8.023 0-12.502 4.037-12.502 10.226 0 5.785 4.345 10.158 11.499 10.158 4.011 0 7.555-1.614 10.162-3.566h1.003v2.758h7.02V23.7c0-8.006-5.415-11.572-13.773-11.572zM0 45.36h7.02V.96H0v44.4zm29.484-32.424h-8.558L10.697 26.457v4.238l10.497 14.664h8.691L17.583 28.542l11.9-15.607zm253.773 0l-5.75 12.848c-1.404 3.095-2.74 6.122-3.141 8.14h-1.004c-.401-2.018-1.805-4.978-3.209-8.072l-5.749-12.916h-7.756l13.505 29.128-6.686 14.666h7.489l20.057-43.794h-7.756zm-28.162 0h-8.557l-10.229 13.522v4.238l10.496 14.664h8.692l-12.302-16.817 11.9-15.607zM211.143 26.12l-4.68-.471c-3.677-.336-5.616-1.345-5.616-3.498 0-2.556 2.474-4.036 6.017-4.036 3.677 0 6.017 1.749 6.218 4.238h6.752c-.267-6.324-5.148-10.226-12.903-10.226-7.822 0-13.104 4.171-13.104 10.293 0 5.113 3.209 8.409 10.496 9.149l4.747.47c2.875.27 4.814.875 4.814 3.633 0 2.49-1.805 4.306-6.552 4.306-4.371 0-6.525-1.996-7.281-4.671h-7.305c.728 6.115 5.833 10.86 14.586 10.86 8.223 0 13.572-4.373 13.572-10.83 0-5.719-3.744-8.612-9.761-9.217zm14.468 19.24h7.02V.96h-7.02v44.4zM179.32 16.701h-1.003v-3.767h-7.02v32.424h7.02V28.407c0-5.785 2.657-9.149 7.889-9.149h4.444v-7.13h-2.572c-4.855 0-6.918 1.842-8.758 4.574z" fill="#00A88E"/></svg>