<svg width="71" height="71" fill="none" xmlns="http://www.w3.org/2000/svg"><path d="M4.395 21.776V48.53a7.262 7.262 0 003.648 6.295l23.523 13.438a7.23 7.23 0 007.186 0l23.523-13.438a7.251 7.251 0 003.648-6.295V21.776a7.233 7.233 0 00-3.648-6.284L38.752 2.055a7.23 7.23 0 00-7.186 0L8.043 15.492a7.247 7.247 0 00-3.648 6.284z" fill="#00A88E"/><path d="M50.54 17.58H19.778v1.098H50.54v-1.099zm-9.888 24.171c0-1.209-2.417-2.197-5.493-2.197-3.077 0-5.494.988-5.494 2.197s2.417 2.198 5.494 2.198c3.076 0 5.493-.99 5.493-2.198z" fill="#4D4D4F"/><path d="M50.54 18.678H19.778v23.073H50.54V18.678z" fill="#6D6E71"/><path d="M48.343 20.875H21.974v18.678h26.37V20.877z" fill="#44ADE2"/><path d="M50.54 51.64H37.357v1.098H50.54v-1.099z" fill="#6D6E71"/><path d="M50.54 46.146H37.357v5.493H50.54v-5.493z" fill="#4D4D4F"/><path d="M49.442 47.245H38.455v3.296h10.987v-3.296z" fill="#A5CF4C"/><path d="M35.158 23.622l-4.944 2.747v5.493c0 3.406 4.944 5.054 4.944 5.054s4.945-1.648 4.945-5.054V26.37l-4.945-2.747zm3.846 8.24c0 2.088-2.857 3.406-3.846 3.846-.988-.44-3.845-1.758-3.845-3.846v-4.834l3.845-2.197 3.846 2.197v4.834z" fill="#fff"/><path d="M35.159 34.06H19.777v18.678h15.382V34.06z" fill="#6D6E71"/><path d="M35.159 32.961H19.777v1.1h15.382v-1.1z" fill="#4D4D4F"/><path d="M34.06 35.159H20.875V50.54H34.06V35.159z" fill="#FDB924"/><path d="M27.468 37.466a2.72 2.72 0 00-2.747 2.747c0 1.209.77 2.197 1.758 2.527v1.099l.44.44v.329l-.44.44v.329l.44.44v.33l-.44.439v.769l.989.549.989-.55V42.85c.989-.44 1.758-1.428 1.758-2.527 0-1.538-1.209-2.857-2.747-2.857zm.33 9.56c0 .109-.11.109-.11.109-.11 0-.11-.11-.11-.11V42.96h.33v4.065h-.11zm-.33-7.252c-.33 0-.66-.33-.66-.66s.33-.659.66-.659.66.33.66.66c0 .329-.33.659-.66.659z" fill="#fff"/></svg>