<svg width="70" height="71" fill="none" xmlns="http://www.w3.org/2000/svg"><path d="M4.375 22.523v26.633a7.232 7.232 0 003.631 6.267l23.417 13.376a7.197 7.197 0 007.154 0l23.417-13.376a7.219 7.219 0 003.631-6.267V22.523a7.2 7.2 0 00-3.631-6.256L38.577 2.89a7.197 7.197 0 00-7.154 0L8.006 16.267a7.214 7.214 0 00-3.631 6.256z" fill="#00A88E"/><path d="M50.313 18.345H19.686v1.094h30.625v-1.094zm-9.844 24.062c0-1.203-2.407-2.187-5.469-2.187-3.063 0-5.469.984-5.469 2.187 0 1.203 2.407 2.188 5.469 2.188 3.063 0 5.469-.985 5.469-2.188z" fill="#4D4D4F"/><path d="M50.313 19.439H19.686v22.968h30.625V19.44z" fill="#6D6E71"/><path d="M48.125 21.626h-26.25V40.22h26.25V21.626z" fill="#44ADE2"/><path d="M50.313 52.251H37.187v1.094h13.126V52.25z" fill="#6D6E71"/><path d="M50.313 46.782H37.187v5.469h13.126v-5.469z" fill="#4D4D4F"/><path d="M49.219 47.876H38.28v3.281h10.94v-3.281z" fill="#A5CF4C"/><path d="M35 24.36l-4.922 2.735v5.468c0 3.391 4.922 5.032 4.922 5.032s4.922-1.64 4.922-5.032v-5.468L35 24.36zm3.828 8.203c0 2.079-2.844 3.391-3.828 3.829-.984-.438-3.828-1.75-3.828-3.829v-4.812L35 25.563l3.828 2.188v4.812z" fill="#fff"/><path d="M35 34.751H19.687v18.594H35V34.75z" fill="#6D6E71"/><path d="M35 33.657H19.687v1.094H35v-1.094z" fill="#4D4D4F"/><path d="M33.906 35.845H20.781v15.312h13.125V35.845z" fill="#F04E45"/><path d="M27.344 39.126l-3.282 1.86v3.609c0 2.297 3.282 3.39 3.282 3.39s3.281-1.093 3.281-3.39v-3.61l-3.281-1.859zm2.187 5.469c0 .984-1.422 1.86-2.187 2.187-.766-.328-2.188-1.203-2.188-2.187v-2.953l2.188-1.204 2.187 1.204v2.953z" fill="#fff"/></svg>